<svg width="199" height="39" viewBox="0 0 199 39" fill="none" xmlns="http://www.w3.org/2000/svg">
<path d="M10.376 29.252C8.528 29.252 6.872 28.952 5.408 28.352C3.944 27.752 2.768 26.864 1.88 25.688C1.016 24.512 0.56 23.096 0.512 21.44H7.064C7.16 22.376 7.484 23.096 8.036 23.6C8.588 24.08 9.308 24.32 10.196 24.32C11.108 24.32 11.828 24.116 12.356 23.708C12.884 23.276 13.148 22.688 13.148 21.944C13.148 21.32 12.932 20.804 12.5 20.396C12.092 19.988 11.576 19.652 10.952 19.388C10.352 19.124 9.488 18.824 8.36 18.488C6.728 17.984 5.396 17.48 4.364 16.976C3.332 16.472 2.444 15.728 1.7 14.744C0.956 13.76 0.584 12.476 0.584 10.892C0.584 8.54 1.436 6.704 3.14 5.384C4.844 4.04 7.064 3.368 9.8 3.368C12.584 3.368 14.828 4.04 16.532 5.384C18.236 6.704 19.148 8.552 19.268 10.928H12.608C12.56 10.112 12.26 9.476 11.708 9.02C11.156 8.54 10.448 8.3 9.584 8.3C8.84 8.3 8.24 8.504 7.784 8.912C7.328 9.296 7.1 9.86 7.1 10.604C7.1 11.42 7.484 12.056 8.252 12.512C9.02 12.968 10.22 13.46 11.852 13.988C13.484 14.54 14.804 15.068 15.812 15.572C16.844 16.076 17.732 16.808 18.476 17.768C19.22 18.728 19.592 19.964 19.592 21.476C19.592 22.916 19.22 24.224 18.476 25.4C17.756 26.576 16.7 27.512 15.308 28.208C13.916 28.904 12.272 29.252 10.376 29.252ZM34.5764 23.78V29H31.4444C29.2124 29 27.4724 28.46 26.2244 27.38C24.9764 26.276 24.3524 24.488 24.3524 22.016V14.024H21.9044V8.912H24.3524V4.016H30.5084V8.912H34.5404V14.024H30.5084V22.088C30.5084 22.688 30.6524 23.12 30.9404 23.384C31.2284 23.648 31.7084 23.78 32.3804 23.78H34.5764ZM36.7814 18.92C36.7814 16.856 37.1654 15.044 37.9334 13.484C38.7254 11.924 39.7934 10.724 41.1374 9.884C42.4814 9.044 43.9814 8.624 45.6374 8.624C47.0534 8.624 48.2894 8.912 49.3454 9.488C50.4254 10.064 51.2534 10.82 51.8294 11.756V8.912H57.9854V29H51.8294V26.156C51.2294 27.092 50.3894 27.848 49.3094 28.424C48.2534 29 47.0174 29.288 45.6014 29.288C43.9694 29.288 42.4814 28.868 41.1374 28.028C39.7934 27.164 38.7254 25.952 37.9334 24.392C37.1654 22.808 36.7814 20.984 36.7814 18.92ZM51.8294 18.956C51.8294 17.42 51.3974 16.208 50.5334 15.32C49.6934 14.432 48.6614 13.988 47.4374 13.988C46.2134 13.988 45.1694 14.432 44.3054 15.32C43.4654 16.184 43.0454 17.384 43.0454 18.92C43.0454 20.456 43.4654 21.68 44.3054 22.592C45.1694 23.48 46.2134 23.924 47.4374 23.924C48.6614 23.924 49.6934 23.48 50.5334 22.592C51.3974 21.704 51.8294 20.492 51.8294 18.956ZM82.959 8.912L70.359 38.54H63.735L68.343 28.316L60.171 8.912H67.047L71.691 21.476L76.299 8.912H82.959Z" fill="#152C5B"/>
<path d="M101.637 3.728V8.66H91.3411V13.988H99.0451V18.776H91.3411V29H85.1851V3.728H101.637ZM107.969 6.824C106.889 6.824 106.001 6.512 105.305 5.888C104.633 5.24 104.297 4.448 104.297 3.512C104.297 2.552 104.633 1.76 105.305 1.136C106.001 0.487998 106.889 0.163998 107.969 0.163998C109.025 0.163998 109.889 0.487998 110.561 1.136C111.257 1.76 111.605 2.552 111.605 3.512C111.605 4.448 111.257 5.24 110.561 5.888C109.889 6.512 109.025 6.824 107.969 6.824ZM111.029 8.912V29H104.873V8.912H111.029ZM127.73 8.696C130.082 8.696 131.954 9.464 133.346 11C134.762 12.512 135.47 14.6 135.47 17.264V29H129.35V18.092C129.35 16.748 129.002 15.704 128.306 14.96C127.61 14.216 126.674 13.844 125.498 13.844C124.322 13.844 123.386 14.216 122.69 14.96C121.994 15.704 121.646 16.748 121.646 18.092V29H115.49V8.912H121.646V11.576C122.27 10.688 123.11 9.992 124.166 9.488C125.222 8.96 126.41 8.696 127.73 8.696ZM138.524 18.92C138.524 16.856 138.908 15.044 139.676 13.484C140.468 11.924 141.536 10.724 142.88 9.884C144.224 9.044 145.724 8.624 147.38 8.624C148.7 8.624 149.9 8.9 150.98 9.452C152.084 10.004 152.948 10.748 153.572 11.684V2.36H159.728V29H153.572V26.12C152.996 27.08 152.168 27.848 151.088 28.424C150.032 29 148.796 29.288 147.38 29.288C145.724 29.288 144.224 28.868 142.88 28.028C141.536 27.164 140.468 25.952 139.676 24.392C138.908 22.808 138.524 20.984 138.524 18.92ZM153.572 18.956C153.572 17.42 153.14 16.208 152.276 15.32C151.436 14.432 150.404 13.988 149.18 13.988C147.956 13.988 146.912 14.432 146.048 15.32C145.208 16.184 144.788 17.384 144.788 18.92C144.788 20.456 145.208 21.68 146.048 22.592C146.912 23.48 147.956 23.924 149.18 23.924C150.404 23.924 151.436 23.48 152.276 22.592C153.14 21.704 153.572 20.492 153.572 18.956ZM183.117 18.632C183.117 19.208 183.081 19.808 183.009 20.432H169.077C169.173 21.68 169.569 22.64 170.265 23.312C170.985 23.96 171.861 24.284 172.893 24.284C174.429 24.284 175.497 23.636 176.097 22.34H182.649C182.313 23.66 181.701 24.848 180.813 25.904C179.949 26.96 178.857 27.788 177.537 28.388C176.217 28.988 174.741 29.288 173.109 29.288C171.141 29.288 169.389 28.868 167.853 28.028C166.317 27.188 165.117 25.988 164.253 24.428C163.389 22.868 162.957 21.044 162.957 18.956C162.957 16.868 163.377 15.044 164.217 13.484C165.081 11.924 166.281 10.724 167.817 9.884C169.353 9.044 171.117 8.624 173.109 8.624C175.053 8.624 176.781 9.032 178.293 9.848C179.805 10.664 180.981 11.828 181.821 13.34C182.685 14.852 183.117 16.616 183.117 18.632ZM176.817 17.012C176.817 15.956 176.457 15.116 175.737 14.492C175.017 13.868 174.117 13.556 173.037 13.556C172.005 13.556 171.129 13.856 170.409 14.456C169.713 15.056 169.281 15.908 169.113 17.012H176.817ZM192.521 12.26C193.241 11.156 194.141 10.292 195.221 9.668C196.301 9.02 197.501 8.696 198.821 8.696V15.212H197.129C195.593 15.212 194.441 15.548 193.673 16.22C192.905 16.868 192.521 18.02 192.521 19.676V29H186.365V8.912H192.521V12.26Z" fill="#06B3C4"/>
</svg>
